<svg width="201" height="31" viewBox="0 0 201 31" fill="none" xmlns="http://www.w3.org/2000/svg">
<path d="M20.1673 0.720191C21.2989 0.390447 22.1674 0.198977 23.3534 0.0826902C27.4381 -0.342993 31.5231 0.886658 34.7023 3.49895C37.8785 6.09923 39.8846 9.87075 40.2717 13.9694C40.6964 18.0347 39.4902 22.1026 36.9203 25.2711C34.0406 28.7762 30.571 30.516 26.1056 30.9464C23.9171 31.1053 22.2797 30.8639 20.1694 30.2813C18.95 30.6073 18.011 30.8264 16.7462 30.9348C12.6635 31.3127 8.59967 30.0365 5.45727 27.3898C2.33824 24.7619 0.393913 20.9899 0.0569745 16.9135C-0.661147 8.16635 5.48499 0.766979 14.2131 0.0558525C16.4273 -0.123921 18.0487 0.161797 20.1673 0.720191ZM10.3953 13.7116L10.2613 15.092L30.0324 15.0874L30.0283 14.4156C29.3995 8.32212 25.8671 3.72727 20.1599 1.62636C14.6495 3.52226 11.2804 8.0206 10.3953 13.7116ZM20.1477 29.4588C26.0157 27.1033 29.7736 22.3516 30.0465 15.917L10.2762 15.9196C10.6122 20.3085 12.0124 23.7452 15.4157 26.6779C16.8218 27.872 18.4227 28.8127 20.1477 29.4588ZM30.7462 13.894L30.849 15.0917L39.5891 15.0871C39.5278 14.274 39.4729 13.4928 39.3106 12.6921C38.5101 8.75973 36.1725 5.31496 32.8218 3.13051C29.3575 0.831119 25.4723 0.349386 21.467 1.17281C22.594 1.78974 23.842 2.42717 24.838 3.23207C28.3823 6.0969 30.1996 9.4202 30.7462 13.894ZM39.5908 15.9181L30.8426 15.9194C30.3461 22.3576 27.3917 27.0776 21.469 29.8339C25.6261 30.6914 29.3664 30.1477 32.9389 27.7796C36.2081 25.6132 38.4937 22.237 39.2985 18.3855C39.4534 17.6227 39.5424 16.7003 39.5908 15.9181ZM9.58109 13.7233C10.6288 7.3828 13.2842 4.13525 18.8509 1.18096C10.8168 -0.644982 3.07608 4.16239 1.11784 12.2404C0.896294 13.1542 0.815154 14.1549 0.714173 15.0898L9.44037 15.089C9.45598 14.6975 9.53608 14.127 9.58109 13.7233ZM0.734379 15.9282C0.910244 17.8829 1.06985 19.233 1.85831 21.0586C4.88832 28.0747 11.4817 31.2938 18.8518 29.8295C13.2214 27.1014 9.71127 22.286 9.44828 15.9169L0.734379 15.9282Z" fill="#120000"/>
<path d="M30.0324 15.0874L30.8489 15.0917L39.5891 15.0871L39.5908 15.9181L30.8425 15.9194L30.0465 15.917L10.2762 15.9196L9.44825 15.9169L0.734348 15.9282L0.714142 15.0898L9.44034 15.089L10.2613 15.092L30.0324 15.0874Z" fill="#E81211"/>
<path d="M9.58112 13.7231L10.3954 13.7114L10.2613 15.0918L9.4404 15.0888C9.45601 14.6973 9.53611 14.1268 9.58112 13.7231Z" fill="#120000"/>
<path d="M30.7461 13.8938L30.8489 15.0916L30.0324 15.0873L30.0283 14.4155C30.2631 14.1361 30.4328 14.0616 30.7461 13.8938Z" fill="#120000"/>
<path d="M75.2373 11.0602C77.3033 10.8838 79.3663 11.2509 81.0746 12.5571C83.9151 14.7289 84.1345 19.7873 82.0023 22.5124C80.6302 24.2661 79.0165 24.6992 76.9006 24.9348C72.798 25.2426 69.299 23.4392 68.8835 18.9961C68.4679 14.5527 70.7655 11.482 75.2373 11.0602ZM77.2615 24.1307C80.6385 23.4934 82.8513 20.2121 82.1893 16.8238C81.5272 13.4354 78.2439 11.2387 74.8779 11.932C71.5509 12.6173 69.3959 15.8702 70.0504 19.2192C70.7047 22.5682 73.9236 24.7607 77.2615 24.1307Z" fill="#120000"/>
<path d="M124.421 6.34535L125.62 6.33691C126.552 7.92133 128.258 11.6708 129.105 13.4364L134.486 24.5699L133.247 24.5705C132.806 23.8768 130.696 19.592 130.434 18.8022C127.202 18.7713 122.784 18.6572 119.627 18.8334C118.713 20.4111 117.658 22.8488 116.824 24.5699C112.747 24.6097 111.339 24.325 111.329 19.76L111.344 12.3945L110.227 12.374C110.263 11.9683 110.33 11.824 110.582 11.5102C110.817 11.5023 111.142 11.5303 111.317 11.4217C111.389 10.3098 111.352 8.99094 111.346 7.86109L112.486 7.85078L112.475 11.5031C113.268 11.5017 117.38 11.3723 117.67 11.6474L117.644 12.2512C117.243 12.5256 113.286 12.3743 112.472 12.3865L112.467 17.8479C112.455 20.9316 111.829 23.6753 115.767 23.6648L116.057 23.663C116.712 22.0676 117.532 20.4451 118.323 18.9071C120.423 14.8173 122.266 10.3908 124.421 6.34535ZM120.053 17.8138L125.085 17.8148C126.67 17.8117 128.353 17.8376 129.931 17.8026C129.428 16.6615 125.368 8.0485 124.97 7.6191C123.603 10.5939 122.123 13.5079 120.721 16.4655C120.507 16.917 120.288 17.3728 120.053 17.8138Z" fill="#120000"/>
<path d="M150.139 11.0568C151.959 10.732 154.535 11.4815 155.831 12.8253C157.399 14.4487 157.586 16.2138 157.579 18.3532L145.157 18.3525C145.209 19.3097 145.259 20.0325 145.635 20.9357C147.021 24.2647 151.189 24.6901 154.12 23.4495C155.43 22.7539 155.317 22.4173 156.315 21.3857C156.531 21.1621 157.024 21.2484 157.352 21.2588C156.413 23.6228 154.927 24.5418 152.406 24.8749C148.371 25.4084 144.585 23.84 144.085 19.3503C143.607 15.06 145.567 11.5585 150.139 11.0568ZM145.163 17.4865C147.426 17.4628 149.689 17.4558 151.952 17.4654L156.47 17.473C156.214 13.3517 154.094 11.7721 150.047 12.0392C149.973 12.0441 149.899 12.0495 149.825 12.0553C146.839 12.7639 145.347 14.3142 145.163 17.4865Z" fill="#120000"/>
<path d="M193.543 11.0559C193.758 11.015 194.305 11.0108 194.553 11.0229C199.403 11.2605 201.004 13.9819 201 18.3585C196.9 18.308 192.704 18.3541 188.595 18.3535C188.822 23.5102 193.121 25.1914 197.534 23.4724C198.482 23.0963 199.249 22.1224 199.7 21.2335L200.759 21.2663C199.891 23.6901 198.515 24.4161 195.936 24.8652C188.619 26.1396 185.138 19.1406 189.021 13.3411C189.901 12.0257 191.891 11.2491 193.543 11.0559ZM188.569 17.4883C190.861 17.4639 193.154 17.4564 195.447 17.4658L199.977 17.4724C199.861 13.7101 197.63 11.8863 193.978 12.0073C193.758 12.0154 193.537 12.0313 193.318 12.0548C190.225 12.6598 188.893 14.4098 188.569 17.4883Z" fill="#120000"/>
<path d="M67.3334 18.6395C67.0811 20.451 66.1476 22.0966 64.725 23.2377C62.6123 24.9375 59.6785 25.1661 57.1186 24.914C51.3594 24.3525 48.5121 19.4329 49.2553 13.97C50.1531 7.3709 54.9716 5.37791 60.9018 6.06647C60.9278 6.51915 60.9415 6.64654 60.7507 7.06988C52.2524 5.4138 47.8549 13.5666 51.7412 20.6545C53.7711 24.3564 60.1625 24.906 63.4442 22.8085C64.9932 21.8184 65.7536 20.4661 66.1457 18.6587L67.3334 18.6395Z" fill="#120000"/>
<path d="M165.759 11.056C168.526 10.6607 171.653 12.0809 171.915 15.031C172.008 16.0701 172.141 24.184 171.87 24.5569C171.526 24.6937 171.643 24.6949 171.303 24.6284C171.152 24.5176 170.941 24.31 170.939 24.116C170.919 22.2882 170.963 20.4022 170.965 18.5767C170.984 16.3677 171.243 13.6096 168.855 12.4872C167.242 11.7294 165.223 12.0185 163.606 12.5931C163.55 12.6182 163.494 12.6436 163.439 12.6693C160.375 14.0959 160.301 15.8026 160.292 18.7258C160.289 19.8465 160.5 23.7964 160.257 24.4624C160.009 24.6195 159.585 24.5647 159.245 24.5694V15.82C159.244 14.9784 159.188 12.3033 159.307 11.5984C159.52 11.4792 159.96 11.5231 160.222 11.5286C160.396 11.7812 160.316 13.7688 160.314 14.2441C160.486 14.0114 160.66 13.7811 160.838 13.5529C162.064 11.9837 163.829 11.2892 165.759 11.056Z" fill="#120000"/>
<path d="M130.443 11.4655C130.753 11.5079 131.428 11.4985 131.77 11.5021C133.623 15.4103 135.781 19.5209 137.534 23.414C139.23 19.7889 141.06 16.2158 142.746 12.5839C143.224 12.6037 143.435 12.5959 143.883 12.7733C143.481 13.7716 142.651 15.2856 142.145 16.323C140.818 19.0812 139.47 21.8291 138.101 24.5665L136.844 24.5659C134.793 20.1436 132.501 15.8441 130.443 11.4655Z" fill="#120000"/>
<path d="M95.5542 22.5403C92.7914 25.8086 85.3275 26.2407 84.8002 21.0787C84.6539 19.6468 84.5187 12.7697 84.7577 11.6112C85.0567 11.4338 85.7536 11.3713 85.8171 11.8522C86.3205 15.6653 83.7725 23.9133 89.7441 24.015C91.9114 24.0519 93.5595 23.3145 95.0566 21.9306L95.5542 22.5403Z" fill="#120000"/>
<path d="M173.509 11.5189L174.636 11.4856L174.628 17.2608C174.625 20.3244 174.283 23.6869 178.353 23.9967C180.294 24.1444 181.985 23.5325 183.46 22.2744L183.87 23.1226L183.857 23.1363C181.279 25.7465 174.467 25.9264 173.672 21.4518C173.422 20.0453 173.491 18.5537 173.495 17.1267L173.509 11.5189Z" fill="#120000"/>
<path d="M184.931 11.512L186.071 11.4989L186.073 24.5677L184.929 24.5701L184.933 21.9119C184.644 22.2641 184.198 22.8439 183.87 23.1227L183.46 22.2745C184.381 21.4841 184.904 20.5665 184.931 19.3294C184.989 16.7493 184.911 14.093 184.931 11.512Z" fill="#120000"/>
<path d="M99.5829 11.5096L100.711 11.4972C100.715 11.935 100.526 13.7836 100.857 13.9723L101.175 13.6375C101.557 13.9037 101.559 14.0214 101.734 14.1614C101.431 14.5628 101.012 15.0255 100.928 15.5442C100.509 18.12 100.699 21.9147 100.71 24.5635L99.5799 24.5687L99.5829 11.5096Z" fill="#120000"/>
<path d="M96.1183 12.7426C96.0975 12.0983 95.9877 11.5817 96.7387 11.3754C97.2725 11.5999 97.1774 11.882 97.1841 12.3771L97.1892 19.9327C97.1895 21.3683 97.2315 23.0999 97.1417 24.509C96.9509 24.6189 96.6264 24.5703 96.3944 24.5566C95.7069 24.0095 96.3562 22.918 96.1064 22.1976L95.9826 22.1422C95.8081 22.2867 95.7089 22.3744 95.5541 22.5405L95.0566 21.9308C96.6852 19.6716 96.1315 15.5895 96.1183 12.7426Z" fill="#120000"/>
<path d="M96.1182 12.7426C96.0974 12.0983 95.9876 11.5817 96.7387 11.3754C97.2725 11.5999 97.1774 11.882 97.1841 12.3771C96.6812 12.3754 96.5175 12.385 96.1182 12.7426Z" fill="#120000"/>
<path d="M60.9018 6.06657C63.1837 6.64491 64.8274 7.45079 66.0965 9.59315C66.5115 10.2848 66.8253 11.0328 67.0285 11.8143L65.8278 11.9483C64.9328 9.34759 63.5375 7.6721 60.7508 7.06998C60.9416 6.64664 60.9278 6.51925 60.9018 6.06657Z" fill="#120000"/>
<path d="M101.175 13.6375C101.894 12.1062 106.385 10.3663 107.26 11.4368C107.291 11.8322 107.297 11.927 107.189 12.3063C106.93 12.439 106.554 12.2576 106.201 12.2564C104.131 12.249 103.107 12.8014 101.734 14.1614C101.559 14.0214 101.557 13.9037 101.175 13.6375Z" fill="#120000"/>
<path d="M142.746 12.5837C143.322 11.4591 143.279 11.4773 144.53 11.4879L143.883 12.7731C143.435 12.5957 143.224 12.6034 142.746 12.5837Z" fill="#120000"/>
<path d="M110.228 12.3738C109.722 12.3891 108.861 12.506 108.666 11.9224C108.902 11.3839 110.098 11.4947 110.582 11.5099C110.33 11.8238 110.263 11.9681 110.228 12.3738Z" fill="#120000"/>
</svg>
